<svg width="24" height="21" viewBox="0 0 24 21" fill="none" xmlns="http://www.w3.org/2000/svg">
<g filter="url(#filter0_d_9_11)">
<path fill-rule="evenodd" clip-rule="evenodd" d="M4 1C4 0.734784 4.10536 0.48043 4.29289 0.292893C4.48043 0.105357 4.73478 0 5 0H19C19.2652 0 19.5196 0.105357 19.7071 0.292893C19.8946 0.48043 20 0.734784 20 1C20 1.26522 19.8946 1.51957 19.7071 1.70711C19.5196 1.89464 19.2652 2 19 2V16C19.2652 16 19.5196 16.1054 19.7071 16.2929C19.8946 16.4804 20 16.7348 20 17C20 17.2652 19.8946 17.5196 19.7071 17.7071C19.5196 17.8946 19.2652 18 19 18H5C4.73478 18 4.48043 17.8946 4.29289 17.7071C4.10536 17.5196 4 17.2652 4 17C4 16.7348 4.10536 16.4804 4.29289 16.2929C4.48043 16.1054 4.73478 16 5 16V2C4.73478 2 4.48043 1.89464 4.29289 1.70711C4.10536 1.51957 4 1.26522 4 1ZM9 3C8.73478 3 8.48043 3.10536 8.29289 3.29289C8.10536 3.48043 8 3.73478 8 4V5C8 5.26522 8.10536 5.51957 8.29289 5.70711C8.48043 5.89464 8.73478 6 9 6H10C10.2652 6 10.5196 5.89464 10.7071 5.70711C10.8946 5.51957 11 5.26522 11 5V4C11 3.73478 10.8946 3.48043 10.7071 3.29289C10.5196 3.10536 10.2652 3 10 3H9ZM14 3C13.7348 3 13.4804 3.10536 13.2929 3.29289C13.1054 3.48043 13 3.73478 13 4V5C13 5.26522 13.1054 5.51957 13.2929 5.70711C13.4804 5.89464 13.7348 6 14 6H15C15.2652 6 15.5196 5.89464 15.7071 5.70711C15.8946 5.51957 16 5.26522 16 5V4C16 3.73478 15.8946 3.48043 15.7071 3.29289C15.5196 3.10536 15.2652 3 15 3H14ZM9 7C8.73478 7 8.48043 7.10536 8.29289 7.29289C8.10536 7.48043 8 7.73478 8 8V9C8 9.26522 8.10536 9.51957 8.29289 9.70711C8.48043 9.89464 8.73478 10 9 10H10C10.2652 10 10.5196 9.89464 10.7071 9.70711C10.8946 9.51957 11 9.26522 11 9V8C11 7.73478 10.8946 7.48043 10.7071 7.29289C10.5196 7.10536 10.2652 7 10 7H9ZM14 7C13.7348 7 13.4804 7.10536 13.2929 7.29289C13.1054 7.48043 13 7.73478 13 8V9C13 9.26522 13.1054 9.51957 13.2929 9.70711C13.4804 9.89464 13.7348 10 14 10H15C15.2652 10 15.5196 9.89464 15.7071 9.70711C15.8946 9.51957 16 9.26522 16 9V8C16 7.73478 15.8946 7.48043 15.7071 7.29289C15.5196 7.10536 15.2652 7 15 7H14ZM11 11C10.4696 11 9.96086 11.2107 9.58579 11.5858C9.21071 11.9609 9 12.4696 9 13V16H11V13H13V16H15V13C15 12.4696 14.7893 11.9609 14.4142 11.5858C14.0391 11.2107 13.5304 11 13 11H11Z" fill="#F24E1E"/>
<path d="M19 1.5H18.5V2V16V16.5H19C19.1326 16.5 19.2598 16.5527 19.3536 16.6464C19.4473 16.7402 19.5 16.8674 19.5 17C19.5 17.1326 19.4473 17.2598 19.3536 17.3536C19.2598 17.4473 19.1326 17.5 19 17.5H5C4.86739 17.5 4.74021 17.4473 4.64645 17.3536C4.55268 17.2598 4.5 17.1326 4.5 17C4.5 16.8674 4.55268 16.7402 4.64645 16.6464C4.74021 16.5527 4.86739 16.5 5 16.5H5.5V16V2V1.5H5C4.86739 1.5 4.74022 1.44732 4.64645 1.35355C4.55268 1.25978 4.5 1.13261 4.5 1C4.5 0.867392 4.55268 0.740215 4.64645 0.646447C4.74022 0.552678 4.86739 0.5 5 0.5H19C19.1326 0.5 19.2598 0.552679 19.3536 0.646447C19.4473 0.740214 19.5 0.867391 19.5 1C19.5 1.13261 19.4473 1.25979 19.3536 1.35355C19.2598 1.44732 19.1326 1.5 19 1.5ZM8.5 16V16.5H9H11H11.5V16V13.5H12.5V16V16.5H13H15H15.5V16V13C15.5 12.337 15.2366 11.7011 14.7678 11.2322C14.2989 10.7634 13.663 10.5 13 10.5H11C10.337 10.5 9.70107 10.7634 9.23223 11.2322C8.76339 11.7011 8.5 12.337 8.5 13V16ZM9 2.5C8.60217 2.5 8.22064 2.65804 7.93934 2.93934C7.65804 3.22064 7.5 3.60217 7.5 4V5C7.5 5.39783 7.65804 5.77936 7.93934 6.06066C8.22064 6.34196 8.60217 6.5 9 6.5C8.60217 6.5 8.22064 6.65804 7.93934 6.93934C7.65804 7.22064 7.5 7.60217 7.5 8V9C7.5 9.39783 7.65804 9.77936 7.93934 10.0607C8.22064 10.342 8.60217 10.5 9 10.5H10C10.3978 10.5 10.7794 10.342 11.0607 10.0607C11.342 9.77936 11.5 9.39783 11.5 9V8C11.5 7.60217 11.342 7.22064 11.0607 6.93934C10.7794 6.65804 10.3978 6.5 10 6.5C10.3978 6.5 10.7794 6.34196 11.0607 6.06066C11.342 5.77936 11.5 5.39783 11.5 5V4C11.5 3.60217 11.342 3.22064 11.0607 2.93934C10.7794 2.65804 10.3978 2.5 10 2.5H9ZM14 2.5C13.6022 2.5 13.2206 2.65804 12.9393 2.93934C12.658 3.22064 12.5 3.60217 12.5 4V5C12.5 5.39783 12.658 5.77936 12.9393 6.06066C13.2206 6.34196 13.6022 6.5 14 6.5C13.6022 6.5 13.2206 6.65804 12.9393 6.93934C12.658 7.22064 12.5 7.60217 12.5 8V9C12.5 9.39783 12.658 9.77936 12.9393 10.0607C13.2206 10.342 13.6022 10.5 14 10.5H15C15.3978 10.5 15.7794 10.342 16.0607 10.0607C16.342 9.77936 16.5 9.39783 16.5 9V8C16.5 7.60217 16.342 7.22064 16.0607 6.93934C15.7794 6.65804 15.3978 6.5 15 6.5C15.3978 6.5 15.7794 6.34196 16.0607 6.06066C16.342 5.77936 16.5 5.39783 16.5 5V4C16.5 3.60217 16.342 3.22064 16.0607 2.93934C15.7794 2.65804 15.3978 2.5 15 2.5H14Z" stroke="black"/>
</g>
<defs>
<filter id="filter0_d_9_11" x="0" y="0" width="24" height="26" filterUnits="userSpaceOnUse" color-interpolation-filters="sRGB">
<feFlood flood-opacity="0" result="BackgroundImageFix"/>
<feColorMatrix in="SourceAlpha" type="matrix" values="0 0 0 0 0 0 0 0 0 0 0 0 0 0 0 0 0 0 127 0" result="hardAlpha"/>
<feOffset dy="4"/>
<feGaussianBlur stdDeviation="2"/>
<feComposite in2="hardAlpha" operator="out"/>
<feColorMatrix type="matrix" values="0 0 0 0 0 0 0 0 0 0 0 0 0 0 0 0 0 0 0.25 0"/>
<feBlend mode="normal" in2="BackgroundImageFix" result="effect1_dropShadow_9_11"/>
<feBlend mode="normal" in="SourceGraphic" in2="effect1_dropShadow_9_11" result="shape"/>
</filter>
</defs>
</svg>
