<svg width="176" height="154" viewBox="0 0 176 154" fill="none" xmlns="http://www.w3.org/2000/svg">
<path d="M92.1534 16.6101L117.893 30.9182L116.528 0.61331L88.8242 15.2257L92.1534 16.6101Z" fill="#505050"/>
<path fill-rule="evenodd" clip-rule="evenodd" d="M92.1534 16.6101L117.893 30.9182L47.2122 138.046L23.146 121.881L19.0371 119.121L62.6509 54.1912L68.0064 46.2182L87.2471 17.5736L88.4299 15.8127L88.8242 15.2257L92.1534 16.6101Z" fill="#3F3F3F"/>
<path d="M98.8029 21.9284L124.543 36.2365L123.177 5.93162L95.4737 20.544L98.8029 21.9284Z" fill="#BBBBBB"/>
<path fill-rule="evenodd" clip-rule="evenodd" d="M98.8029 21.9284L124.543 36.2365L53.8617 143.365L29.7955 127.199L25.6866 124.439L69.3004 59.5095L74.6559 51.5366L93.8966 22.8919L95.0794 21.131L95.4737 20.544L98.8029 21.9284Z" fill="#635D5D"/>
<path d="M106.039 27.641L131.779 41.9491L130.414 11.6442L102.71 26.2566L106.039 27.641Z" fill="#C0BFBF"/>
<path fill-rule="evenodd" clip-rule="evenodd" d="M106.039 27.641L131.779 41.9491L61.0981 149.077L37.0319 132.912L32.9231 130.152L76.5369 65.2221L81.8923 57.2491L101.133 28.6045L102.316 26.8436L102.71 26.2566L106.039 27.641Z" fill="#858585"/>
<g filter="url(#filter0_d_1_19)">
<rect x="170.061" y="130.441" width="16" height="84.0915" rx="2" transform="rotate(151.415 170.061 130.441)" fill="url(#paint0_linear_1_19)" fill-opacity="0.47" shape-rendering="crispEdges"/>
</g>
<path d="M26.1059 131.01L171.3 131.541L174.961 150.185L13.3926 149.303L26.1059 131.01Z" fill="url(#paint1_linear_1_19)"/>
<g filter="url(#filter1_di_1_19)">
<path d="M61.912 148L61.752 146.832L62.728 146.64V138.24L61.768 138.144V136.944H68.616L68.936 139.952H67.912L67.304 138.336H64.344V141.712H66.856V143.072H64.344V146.608H67.448L68.024 144.992H69.032L68.712 148H61.912ZM72.8246 148.048C72.334 148.048 71.8966 147.963 71.5126 147.792C71.1286 147.621 70.814 147.408 70.5686 147.152C70.3233 146.885 70.142 146.629 70.0246 146.384L71.6886 145.744L72.0886 146.672C72.142 146.693 72.238 146.725 72.3766 146.768C72.526 146.811 72.7073 146.832 72.9206 146.832C73.0593 146.832 73.2086 146.8 73.3686 146.736C73.5393 146.672 73.6833 146.576 73.8006 146.448C73.918 146.309 73.9766 146.128 73.9766 145.904C73.9766 145.669 73.902 145.477 73.7526 145.328C73.614 145.179 73.422 145.056 73.1766 144.96C72.9313 144.853 72.6646 144.741 72.3766 144.624C71.7153 144.389 71.214 144.091 70.8726 143.728C70.542 143.365 70.3766 142.933 70.3766 142.432C70.3766 141.995 70.4886 141.611 70.7126 141.28C70.9473 140.949 71.262 140.693 71.6566 140.512C72.0513 140.32 72.478 140.224 72.9366 140.224C73.438 140.224 73.8646 140.309 74.2166 140.48C74.5793 140.64 74.8726 140.843 75.0966 141.088C75.3313 141.333 75.502 141.568 75.6086 141.792L73.9446 142.432L73.5606 141.616C73.5286 141.595 73.4593 141.563 73.3526 141.52C73.246 141.477 73.0966 141.456 72.9046 141.456C72.7446 141.456 72.59 141.488 72.4406 141.552C72.2913 141.605 72.1633 141.691 72.0566 141.808C71.9606 141.925 71.9126 142.08 71.9126 142.272C71.9126 142.475 71.9873 142.645 72.1366 142.784C72.2966 142.923 72.5206 143.056 72.8086 143.184C73.0966 143.301 73.4273 143.44 73.8006 143.6C74.334 143.813 74.75 144.096 75.0486 144.448C75.358 144.789 75.5126 145.227 75.5126 145.76C75.5126 146.251 75.3793 146.672 75.1126 147.024C74.8566 147.365 74.5206 147.621 74.1046 147.792C73.6993 147.963 73.2726 148.048 72.8246 148.048ZM80.109 148.064C79.6183 148.064 79.165 147.979 78.749 147.808C78.333 147.627 77.9703 147.371 77.661 147.04C77.3623 146.709 77.1277 146.315 76.957 145.856C76.7863 145.387 76.701 144.859 76.701 144.272C76.701 143.611 76.7863 143.029 76.957 142.528C77.1277 142.027 77.3623 141.605 77.661 141.264C77.9703 140.923 78.333 140.667 78.749 140.496C79.165 140.325 79.613 140.24 80.093 140.24C80.4557 140.24 80.7703 140.283 81.037 140.368C81.3143 140.443 81.549 140.539 81.741 140.656C81.9437 140.773 82.109 140.891 82.237 141.008C82.365 141.115 82.461 141.2 82.525 141.264L81.165 142.336L80.365 141.472L80.013 141.456C79.7037 141.445 79.437 141.515 79.213 141.664C78.989 141.813 78.8023 142.021 78.653 142.288C78.5143 142.544 78.413 142.843 78.349 143.184C78.285 143.515 78.253 143.867 78.253 144.24C78.253 144.677 78.317 145.099 78.445 145.504C78.5837 145.899 78.8023 146.219 79.101 146.464C79.4103 146.709 79.8263 146.832 80.349 146.832C80.6157 146.832 80.8503 146.8 81.053 146.736C81.2663 146.672 81.4583 146.592 81.629 146.496C81.7997 146.4 81.949 146.309 82.077 146.224L82.413 147.328C82.1357 147.584 81.789 147.771 81.373 147.888C80.9677 148.005 80.5463 148.064 80.109 148.064ZM86.6864 148.064C86.025 148.064 85.4384 147.893 84.9264 147.552C84.4144 147.211 84.0144 146.741 83.7264 146.144C83.4384 145.547 83.2944 144.869 83.2944 144.112C83.2944 143.323 83.4437 142.64 83.7424 142.064C84.041 141.477 84.441 141.024 84.9424 140.704C85.4544 140.384 86.0357 140.224 86.6864 140.224C87.3477 140.224 87.9344 140.389 88.4464 140.72C88.9584 141.04 89.3584 141.493 89.6464 142.08C89.9344 142.667 90.0784 143.344 90.0784 144.112C90.0784 144.88 89.9344 145.563 89.6464 146.16C89.3584 146.757 88.9584 147.227 88.4464 147.568C87.9344 147.899 87.3477 148.064 86.6864 148.064ZM86.6864 146.832C87.0917 146.832 87.433 146.725 87.7104 146.512C87.9877 146.288 88.1957 145.979 88.3344 145.584C88.473 145.189 88.5424 144.725 88.5424 144.192C88.5424 143.669 88.473 143.2 88.3344 142.784C88.1957 142.368 87.9877 142.043 87.7104 141.808C87.433 141.573 87.0917 141.456 86.6864 141.456C86.377 141.456 86.105 141.531 85.8704 141.68C85.6464 141.819 85.4544 142.021 85.2944 142.288C85.145 142.544 85.033 142.843 84.9584 143.184C84.8837 143.515 84.8464 143.872 84.8464 144.256C84.8464 144.779 84.9157 145.237 85.0544 145.632C85.2037 146.016 85.4117 146.315 85.6784 146.528C85.9557 146.731 86.2917 146.832 86.6864 146.832ZM91.0745 148L90.9465 147.136L91.9065 146.912V137.536H91.0425L90.8825 136.592L92.8825 136.288L93.3945 136.816V146.896L94.4025 147.136V148H91.0745ZM97.6933 148.064C97.2239 148.064 96.8133 147.979 96.4613 147.808C96.1093 147.627 95.8319 147.376 95.6293 147.056C95.4373 146.725 95.3413 146.352 95.3413 145.936C95.3413 145.435 95.4693 145.024 95.7253 144.704C95.9919 144.373 96.3279 144.117 96.7333 143.936C97.1493 143.744 97.5919 143.611 98.0613 143.536C98.5306 143.451 98.9733 143.403 99.3893 143.392V142.24C99.3893 142.016 99.2826 141.829 99.0693 141.68C98.8666 141.531 98.5679 141.456 98.1733 141.456C98.0559 141.456 97.9226 141.467 97.7733 141.488C97.6239 141.499 97.5013 141.531 97.4053 141.584L97.0693 142.608L95.4053 142.032C95.6079 141.488 95.9653 141.056 96.4773 140.736C96.9999 140.405 97.5866 140.24 98.2373 140.24C98.7599 140.24 99.2186 140.325 99.6133 140.496C100.008 140.667 100.317 140.933 100.541 141.296C100.765 141.648 100.877 142.107 100.877 142.672V146.512C100.877 146.64 100.904 146.741 100.957 146.816C101.021 146.891 101.107 146.928 101.213 146.928C101.267 146.928 101.32 146.923 101.373 146.912C101.427 146.891 101.464 146.875 101.485 146.864L101.725 147.632C101.64 147.717 101.496 147.813 101.293 147.92C101.101 148.016 100.883 148.064 100.637 148.064C100.328 148.064 100.088 147.995 99.9173 147.856C99.7466 147.717 99.6133 147.541 99.5173 147.328C99.3039 147.541 99.0373 147.717 98.7173 147.856C98.4079 147.995 98.0666 148.064 97.6933 148.064ZM97.9493 146.832C98.2586 146.832 98.5413 146.752 98.7973 146.592C99.0639 146.432 99.2613 146.24 99.3893 146.016V144.528C99.1546 144.528 98.8933 144.549 98.6053 144.592C98.3173 144.624 98.0399 144.688 97.7733 144.784C97.5173 144.869 97.3039 144.997 97.1332 145.168C96.9626 145.339 96.8773 145.563 96.8773 145.84C96.8773 146.107 96.9679 146.341 97.1493 146.544C97.3306 146.736 97.5973 146.832 97.9493 146.832ZM108.434 147.984V146.88L110.786 146.624V144.912H106.498L105.938 143.68L110.642 136.944H112.402V143.504H113.698V144.912H112.402V146.656L113.634 146.864L113.65 147.984H108.434ZM107.554 143.504H110.786V138.896L107.554 143.504ZM115.977 148.064C115.71 148.064 115.481 147.973 115.289 147.792C115.107 147.6 115.017 147.371 115.017 147.104C115.017 146.837 115.107 146.613 115.289 146.432C115.481 146.24 115.71 146.144 115.977 146.144C116.243 146.144 116.467 146.24 116.649 146.432C116.841 146.613 116.937 146.837 116.937 147.104C116.937 147.371 116.841 147.6 116.649 147.792C116.467 147.973 116.243 148.064 115.977 148.064ZM122.28 148.064C121.576 148.064 120.974 147.909 120.472 147.6C119.982 147.28 119.576 146.853 119.256 146.32C118.947 145.787 118.723 145.189 118.584 144.528C118.446 143.867 118.376 143.195 118.376 142.512C118.376 141.819 118.446 141.141 118.584 140.48C118.723 139.819 118.947 139.221 119.256 138.688C119.576 138.155 119.982 137.733 120.472 137.424C120.974 137.104 121.576 136.944 122.28 136.944C122.984 136.944 123.587 137.104 124.088 137.424C124.59 137.733 124.995 138.155 125.304 138.688C125.614 139.221 125.838 139.819 125.976 140.48C126.126 141.141 126.2 141.819 126.2 142.512C126.2 143.195 126.126 143.867 125.976 144.528C125.838 145.189 125.614 145.787 125.304 146.32C124.995 146.853 124.59 147.28 124.088 147.6C123.587 147.909 122.984 148.064 122.28 148.064ZM122.28 146.672C122.739 146.672 123.112 146.544 123.4 146.288C123.688 146.032 123.912 145.696 124.072 145.28C124.243 144.853 124.36 144.4 124.424 143.92C124.488 143.429 124.52 142.96 124.52 142.512C124.52 142.043 124.488 141.568 124.424 141.088C124.36 140.597 124.243 140.144 124.072 139.728C123.912 139.312 123.688 138.976 123.4 138.72C123.112 138.464 122.739 138.336 122.28 138.336C121.832 138.336 121.464 138.464 121.176 138.72C120.888 138.976 120.664 139.312 120.504 139.728C120.344 140.144 120.227 140.597 120.152 141.088C120.088 141.568 120.056 142.043 120.056 142.512C120.056 142.96 120.088 143.429 120.152 143.92C120.227 144.4 120.344 144.853 120.504 145.28C120.664 145.696 120.888 146.032 121.176 146.288C121.464 146.544 121.832 146.672 122.28 146.672Z" fill="#343333" fill-opacity="0.48" shape-rendering="crispEdges"/>
</g>
<defs>
<filter id="filter0_d_1_19" x="113.89" y="55.7125" width="58.0584" height="85.2715" filterUnits="userSpaceOnUse" color-interpolation-filters="sRGB">
<feFlood flood-opacity="0" result="BackgroundImageFix"/>
<feColorMatrix in="SourceAlpha" type="matrix" values="0 0 0 0 0 0 0 0 0 0 0 0 0 0 0 0 0 0 127 0" result="hardAlpha"/>
<feOffset dy="1"/>
<feGaussianBlur stdDeviation="1.3"/>
<feComposite in2="hardAlpha" operator="out"/>
<feColorMatrix type="matrix" values="0 0 0 0 0 0 0 0 0 0 0 0 0 0 0 0 0 0 0.21 0"/>
<feBlend mode="normal" in2="BackgroundImageFix" result="effect1_dropShadow_1_19"/>
<feBlend mode="normal" in="SourceGraphic" in2="effect1_dropShadow_1_19" result="shape"/>
</filter>
<filter id="filter1_di_1_19" x="61.052" y="136.288" width="65.8482" height="14.476" filterUnits="userSpaceOnUse" color-interpolation-filters="sRGB">
<feFlood flood-opacity="0" result="BackgroundImageFix"/>
<feColorMatrix in="SourceAlpha" type="matrix" values="0 0 0 0 0 0 0 0 0 0 0 0 0 0 0 0 0 0 127 0" result="hardAlpha"/>
<feOffset dy="2"/>
<feGaussianBlur stdDeviation="0.35"/>
<feComposite in2="hardAlpha" operator="out"/>
<feColorMatrix type="matrix" values="0 0 0 0 0 0 0 0 0 0 0 0 0 0 0 0 0 0 0.08 0"/>
<feBlend mode="normal" in2="BackgroundImageFix" result="effect1_dropShadow_1_19"/>
<feBlend mode="normal" in="SourceGraphic" in2="effect1_dropShadow_1_19" result="shape"/>
<feColorMatrix in="SourceAlpha" type="matrix" values="0 0 0 0 0 0 0 0 0 0 0 0 0 0 0 0 0 0 127 0" result="hardAlpha"/>
<feOffset dy="1"/>
<feGaussianBlur stdDeviation="0.4"/>
<feComposite in2="hardAlpha" operator="arithmetic" k2="-1" k3="1"/>
<feColorMatrix type="matrix" values="0 0 0 0 0.891667 0 0 0 0 0.691042 0 0 0 0 0.691042 0 0 0 0.11 0"/>
<feBlend mode="normal" in2="shape" result="effect2_innerShadow_1_19"/>
</filter>
<linearGradient id="paint0_linear_1_19" x1="178.061" y1="214.533" x2="178.061" y2="130.441" gradientUnits="userSpaceOnUse">
<stop stop-color="#E4E0E0"/>
<stop offset="1" stop-color="#CBC7C7"/>
</linearGradient>
<linearGradient id="paint1_linear_1_19" x1="13.6963" y1="138.259" x2="175.167" y2="142.699" gradientUnits="userSpaceOnUse">
<stop stop-color="#CECACA"/>
<stop offset="1" stop-color="#747272"/>
</linearGradient>
</defs>
</svg>
